<svg version="1.2" xmlns="http://www.w3.org/2000/svg" viewBox="0 0 2004 899" width="600" height="269">
	<title>new-lpt-logo-svg</title>
	<defs>
		<clipPath clipPathUnits="userSpaceOnUse" id="cp1">
			<path d="m0 0h2004v899h-2004z"/>
		</clipPath>
	</defs>
	<style>
		.s0 { fill: #fcd21c;stroke: #ed1b23;stroke-miterlimit:10;stroke-width: 12 } 
		.s1 { fill: #ed1b23 } 
	</style>
	<g id="Clip-Path" clip-path="url(#cp1)">
		<g id="Layer">
			<path id="Layer" class="s0" d="m1998.1 6h-1992.1v729.6h1992.1z"/>
			<path id="Layer" fill-rule="evenodd" class="s1" d="m284.9 101.7v14.6c-5 1.4-9.1 3.1-12 4.6-2.9 1.9-5.3 4.1-7 7.2-1.4 2.9-2.6 6.5-3.1 11.3-0.5 4.6-0.7 10.3-0.7 17.5v219.3h41c8.2 0 14.6-1.2 19.4-3.8 5-2.9 9.1-7 12.7-12.5 3.6-5.3 6.7-12.5 9.4-21.4 2.6-8.9 4.8-17.3 6.2-25.2h28.8l-4.6 89h-200.7v-14.4c5.3-1.7 9.4-3.1 12.2-5 3.1-1.7 5.3-4.1 6.7-7 1.4-3.1 2.4-7 2.9-11.5 0.5-4.6 0.7-10.6 0.7-17.5v-189.8c0-6.7-0.2-12.7-0.7-17.3-0.2-4.8-1.2-8.4-2.6-11.5-1.4-2.9-3.6-5.3-6.7-7.2-2.9-1.7-7.2-3.4-12.5-4.8v-14.6zm237.5 229h-69.1l-5.3 16.1c-1.7 4.6-2.9 8.9-3.8 13-1 4.3-1.4 8.9-1.4 13.4 0 11.3 5.8 17 17 18v11h-69.3v-11c4.1-0.5 7.4-1.9 10.6-4.6 3.1-2.4 5.8-5.8 8.2-10.1 2.6-4.3 5.3-10.6 8.2-18.5l67.2-188h43.2l53.5 189.5c2.4 8.6 4.6 14.6 6 18.2 1.7 3.4 3.8 6.2 6.5 8.6 2.4 2.2 6.2 3.6 10.8 4.8v11h-89.5v-11c5.8-0.7 9.8-2.4 12.5-5 2.6-2.6 4.1-6.2 4.1-11 0-3.4-0.2-7.2-1.2-11.5-0.7-4.3-1.9-9.8-3.6-16.3zm-62.9-19.9h58.3l-25.9-95.2zm401.4-81.5c1.7-5.3 2.9-10.3 4.1-15.6 1-5.3 1.4-9.8 1.4-13.4 0-6-1.2-10.3-4.1-13-2.6-2.9-7-4.3-12.2-5v-11h67.4v11c-4.1 1-7.2 2.6-10.1 5-2.6 2.2-5 5.5-7.2 9.6-2.2 4.3-4.8 11.3-8.2 21.1l-60.7 185.4h-38.6l-36.5-158.8-43.7 158.8h-40.3l-48.9-189.5c-2.2-9.4-4.3-15.8-6.2-19.4-1.9-3.6-3.8-6.2-6-7.9-2.4-1.9-5.3-3.4-8.6-4.3v-11h87.1v11c-5.5 1-9.8 2.4-12.5 5-2.6 2.6-4.1 6.2-4.1 11 0 6 1.7 15.4 4.8 27.8l28.1 117.8 46.3-172.7h36.7l37.9 172.7zm216.8 118c0 9.6 0.2 16.6 1 20.4 0.7 4.1 1.9 7.4 3.4 9.8 1.7 2.4 4.1 4.3 7 6 3.1 1.7 7.9 3.1 14.2 4.3v14.4h-113.6v-14.4c5.3-1.7 9.4-3.1 12.5-4.8 2.9-1.7 5.3-4.1 6.7-7 1.4-3.1 2.4-7 2.9-11.5 0.2-4.8 0.5-10.6 0.5-17.5v-190c0-6.7-0.2-12.7-0.5-17.3-0.2-4.8-1.2-8.4-2.9-11.5-1.4-2.9-3.6-5.3-6.5-7.2-3.1-1.7-7.4-3.4-12.7-4.8v-14.6h122.3c35.7 0 62.4 6.7 80.1 19.9 17.5 13.4 26.4 33.8 26.4 61.4 0 19.4-4.1 36.5-12.5 50.9-8.2 14.4-20.2 25.2-36 32.6-15.8 7.4-35.3 11.3-59 11.3-13.7 0-24.7-0.5-33.3-1zm18-95.5c14.2 0 25.2-2.2 33.6-6.2 8.2-4.1 14.4-10.8 18.5-19.9 3.8-9.1 6-21.4 6-36.7 0-15.3-2.2-27.6-6-36.5-4.1-9.1-9.8-15.6-17.8-19.2-7.7-3.8-17.5-5.8-29.7-5.8-9.6 0-17.3 0-22.5 0.5v123.8zm236.8 150.4h-85.2v-11c4.1-1.2 7.2-2.4 9.6-3.8 2.2-1.2 4.1-2.9 5-5.3 1.2-2.4 1.9-5.3 2.2-8.9 0.5-3.6 0.5-7.9 0.5-13.4v-145.9c0-5.3 0-9.8-0.2-13.4-0.2-3.6-1-6.5-2.2-8.9-1.2-2.2-2.9-4.1-5.3-5.5-2.2-1.2-5.5-2.6-9.6-3.8v-11h94.5c12.7 0 23.5 1 32.4 2.9 8.9 1.7 16.8 4.6 23.5 8.4 5.5 3.4 10.3 7.2 14.2 12 4.1 4.8 7 10.3 9.1 16.8 2.2 6.2 3.1 13.7 3.1 22.3 0 11-1.9 20.4-5.5 28.3-3.8 7.9-8.9 14.4-15.1 19.7-6.2 5.3-14.9 10.3-25.4 14.9v1.7c7.9 3.6 14.6 8.4 19.9 14.6 5.3 6 9.8 13.4 14.2 22.8l10.1 23c4.6 10.3 9.1 18 13.7 23 4.6 5.3 9.8 8.4 15.8 9.6v11h-62.4c-6.2-8.9-13.2-22.3-21.1-40.3l-12.7-29c-3.6-8.4-7-14.6-9.6-18.2-2.6-3.6-5.5-6-8.4-7.4-2.9-1.2-7.2-1.9-13.2-1.9h-9.4v54.5c0 8.4 0.2 14.4 1.2 17.8 0.7 3.4 2.2 6.2 4.3 8.2 2.2 1.9 6 3.8 12 5.5zm-17.5-210.8v94h16.1c8.6 0 15.6-1.2 21.4-3.6 5.5-2.4 10.1-5.8 13.2-10.1 3.4-4.3 5.8-9.6 7-15.4 1.2-6 1.9-12.2 1.9-19.4 0-15.1-3.6-26.6-10.3-34.5-7-7.4-17.3-11.3-30.9-11.3-9.6 0-15.5 0-18.4 0.3zm307.8 33.6h-22.1c-3.6-10.6-6.7-18-9.1-21.6-2.6-3.8-5.5-6.7-8.9-9.1-3.6-2.2-9.4-3.1-17.8-3.1h-35.3v81.1h21.4c4.8 0 8.4-0.7 11-1.9 2.9-1.4 5-3.8 7-7.2 1.7-3.1 3.4-8.4 5-15.1h18.2v68.6h-18.2c-1.4-6.5-3.4-11.5-5-14.9-1.9-3.6-4.1-6-6.7-7.4-2.4-1.4-6.2-2.2-11.3-2.2h-21.4v90.4h35c3.8 0 7-0.5 9.6-1 2.6-0.5 4.8-1.2 7-2.4 2.2-1.4 4.1-3.1 6-5.3 1.9-2.2 3.6-4.3 5-7 1.4-2.4 2.9-5.8 4.6-9.6 1.7-4.3 3.4-9.8 5.3-16.8h22.3l-3.1 61.7h-159.3v-11c4.1-1.2 7.2-2.4 9.6-3.8 2.2-1.2 4.1-2.9 5-5.3 1.2-2.4 1.9-5.3 2.2-8.9 0.5-3.6 0.5-7.9 0.5-13.4v-145.9c0-5.3 0-9.8-0.2-13.4-0.2-3.6-1-6.5-2.2-8.9-1.2-2.2-2.9-4.1-5.3-5.5-2.2-1.2-5.5-2.6-9.6-3.8v-11h160.8zm98.5 135c0 7.4 0.2 12.7 0.7 15.8 0.5 3.1 1.4 5.5 2.6 7.4 1.2 1.9 3.1 3.4 5.3 4.6 2.4 1.2 6 2.4 10.8 3.4v11h-87.1v-11c4.1-1.2 7.2-2.4 9.6-3.8 2.2-1.2 4.1-2.9 5-5.3 1.2-2.4 1.9-5.3 2.2-8.9 0.5-3.6 0.5-7.9 0.5-13.4v-145.9c0-5.3 0-9.8-0.2-13.4-0.2-3.6-1-6.5-2.2-8.9-1.2-2.2-2.9-4.1-5.3-5.5-2.2-1.2-5.5-2.6-9.6-3.8v-11h94.3c27.1 0 47.7 5 61.2 15.4 13.7 10.1 20.4 25.9 20.4 47.3 0 14.9-3.1 27.8-9.4 38.9-6.5 11-15.6 19.4-27.8 25.2-12 5.8-27.1 8.6-45.3 8.6-10.6 0-19-0.2-25.7-0.7zm13.9-73.4c10.8 0 19.2-1.4 25.7-4.8 6.5-3.1 11-8.4 14.2-15.4 3.2-7 4.6-16.3 4.6-28.1 0-12-1.4-21.1-4.6-28.1-3.1-7-7.4-12-13.4-14.9-6-2.9-13.7-4.3-22.8-4.3-7.7 0-13.4 0-17.5 0.2v95.4z"/>
			<path id="Layer" fill-rule="evenodd" class="s1" d="m541.6 599.2c3.1-0.5 5.5-1.2 7.4-2.2 1.9-1 3.1-2.2 4.1-3.8 1-1.7 1.4-3.8 1.7-6.5 0.2-2.4 0.5-5.5 0.5-9.4v-117.5h-9.1c-4.6 0-8.2 0.5-10.6 1.7-2.4 1.2-4.6 2.9-6.2 5.3-1.7 2.2-3.4 5.5-4.6 9.4-1.2 4.1-2.4 7.7-3.1 11.3h-15.6v-41.3h132.9v41.3h-15.4c-1.4-5.3-2.6-9.4-3.6-11.8-0.7-2.6-1.7-4.6-2.6-6.5-1-1.7-2.2-3.1-3.1-4.3-1.2-1.2-2.4-2.2-3.6-2.9-1.4-0.7-2.9-1.2-4.8-1.7-1.9-0.2-4.6-0.5-7.7-0.5h-8.2v117.5c0 4.1 0.2 7.4 0.5 9.4 0.2 2.4 0.5 4.1 1.2 5.3 0.7 1.4 1.4 2.6 2.2 3.4 1 0.7 2.2 1.4 3.6 2.2 1.7 0.7 3.6 1.2 6.2 1.7v7.7h-62.1zm128.3-109.2h43.9v65.5c0 7.4 0.2 13.4 0.7 17.5 0.5 4.3 1.2 7.7 2.6 10.1 1.2 2.6 2.6 4.3 4.6 5.5 1.9 1.2 4.3 1.7 7.2 1.7 2.6 0 5.5-1 8.6-2.6 3.1-1.9 5.8-4.3 7.9-7.7 2.2-3.1 3.1-6.7 3.1-10.3v-45.6c0-5.8 0-10.1-0.2-12.7-0.2-2.9-0.7-5-1.4-6.7-0.5-1.4-1.4-2.9-2.9-3.8-1.4-1.2-3.6-2.2-6.7-3.1v-7.8h44.1v82.5c0 6 0 10.3 0.2 13 0.2 2.9 0.5 5 1.2 6.7 0.7 1.7 1.9 2.9 3.4 4.1 1.4 1 4.1 1.9 7.4 2.6v7.9l-30.7 1.2h-13.4l1-17-1.4-0.2c-7 6.7-13.2 11.3-18.7 13.9-5.5 2.9-11 4.1-16.6 4.1-7.9 0-14.4-1.4-19.2-4.6-4.8-3.1-8.2-7.7-10.3-13.7-2.2-6-3.1-13.9-3.1-23.3v-43.2c0-4.3 0-7.9-0.2-10.1 0-2.4-0.2-4.3-0.5-5.5-0.2-1.4-0.5-2.6-1-3.6-0.5-1-1-1.9-1.7-2.9-0.7-1-1.7-1.7-2.9-2.4-1.2-0.7-2.9-1.2-5-1.9zm239.4 102.7c-6.5 6-12.5 10.1-18 12.5-5.3 2.4-11 3.6-17 3.6-11.3 0-19.7-3.1-25.2-9.4-5.5-6.5-8.2-16.1-8.2-28.8v-66h-14.2v-8.2c4.6-0.7 7.9-1.9 10.1-3.4 2.2-1.7 3.8-3.8 5-6.5 1.2-2.6 2.2-6 2.9-10.3 0.7-4.1 1.2-9.4 1.7-15.8h26.9v29.6h32.1v14.6h-32.1v53.3c0 8.9 0.5 15.4 1.2 19.7 1 4.3 2.2 7.4 4.1 9.4 1.9 1.9 4.3 3.1 7 3.1 2.2 0 4.1-0.2 5.8-0.7 1.7-0.2 3.4-1 5.3-2.2 1.7-1 3.6-2.4 5.8-4.3zm80.9 16.1c-11 0-20.6-1.9-28.8-6-7.9-4.1-14.2-10.6-18.7-19.4-4.5-8.8-6.7-20.4-6.7-34.1 0-10.6 1.4-19.7 4.1-27.3 2.9-7.7 6.7-14.2 11.8-19.2 4.8-5 10.8-8.6 17.8-11 6.7-2.4 14.4-3.6 22.3-3.6 18.2 0 31.9 5 41.3 15.1 9.1 9.8 13.9 24.7 13.9 43.9 0 13.7-2.4 25.2-7 34.3-4.6 9.4-11 16.3-19.7 20.6-8.5 4.5-18.6 6.7-30.3 6.7zm-19.9-62.2c0 16.8 1.7 29.3 5.3 37.4 3.6 8.4 8.9 12.5 16.3 12.5 3.8 0 7.2-1 9.8-3.1 2.6-2.2 4.8-5.3 6.5-9.1 1.7-4.1 2.9-8.9 3.4-14.6 0.7-5.5 1.2-11.8 1.2-19 0-16.8-1.9-29.5-5.5-37.7-3.6-8.4-8.9-12.7-15.8-12.7-5 0-9.1 1.7-12.2 5-3.1 3.4-5.3 8.4-6.7 15.4-1.6 6.8-2.3 15.4-2.3 25.9zm160.7-39.8l1.4 0.5c5.3-6.7 11-11.8 16.8-14.6 5.8-3.1 12.2-4.6 19-4.6 4.6 0 9.4 0.5 14.4 1.4v32.6h-20.4c-1.4-4.6-2.9-8.2-5-10.6-2.2-2.4-4.8-3.6-8.4-3.6-1.7 0-3.4 0.5-5.5 1.7-1.9 1-3.8 2.4-5.5 4.3-1.7 1.9-2.9 4.1-3.6 6-0.7 1.9-1.2 4.1-1.2 6-0.2 2.2-0.5 5-0.5 9.4v37.4c0 7.4 0.2 12.7 0.7 15.8 0.7 2.9 1.7 5.3 3.1 7 1.7 1.7 4.3 2.9 8.2 3.6v7.7h-55.7v-7.7c3.6-1 6.2-2.4 7.4-4.1 1.4-1.7 2.4-3.8 2.9-6.7 0.5-2.9 0.7-7.9 0.7-15.4v-48.5c0-5.8 0-10.1-0.2-13-0.2-2.9-0.7-5-1.4-6.7-0.7-1.7-1.7-3.1-3.1-4.1-1.4-1.2-4.1-2.2-7.7-2.9v-7.7l30.9-1h14.2zm129-63.8v28.8h-30.9v-28.8zm-42.9 156.2c3.8-1 6.2-2.4 7.7-4.1 1.4-1.7 2.4-3.8 2.9-6.7 0.5-2.9 0.7-7.9 0.7-15.4v-54.9c0-3.8-0.2-7-0.5-9.4-0.5-2.2-1-4.1-1.9-5.5-1-1.4-2.4-2.4-3.8-3.4-1.7-0.7-3.8-1.2-6.2-1.9v-7.9l30.9-1h14.2c0 4.6 0 91.6 0 94 0.2 2.4 0.5 4.1 0.7 5.5 0.2 1.2 0.5 2.4 1 3.4 0.2 1.2 1 2.2 1.4 2.9 0.7 1 1.7 1.7 3.1 2.4 1.2 0.7 2.9 1.4 5 1.9v7.7h-55.2zm161.4-7.7l-1.7-0.5c-6.2 6.2-12.2 10.8-18 13.4-5.8 2.9-12 4.3-18.7 4.3-6.5 0-12-1.2-16.8-3.6-4.8-2.6-8.4-6-10.8-10.3-2.4-4.6-3.6-9.6-3.6-15.4 0-11.5 5.3-20.6 16.3-27.1 10.8-6.7 27.3-11 49.4-12.7v-11c0-7.4-0.7-13-2.4-17-1.7-3.8-3.6-6.7-6-8.4-2.6-1.7-5.5-2.4-9.1-2.4-3.4 0-6.2 0.7-8.9 1.9-2.7 1.2-4.8 3.6-7 7.2-1.9 3.4-3.4 8.2-4.3 14.4h-21.4v-21.3c7-3.1 12.7-5.8 17.3-7.4 4.6-1.7 9.1-3.1 13.7-4.3 4.3-1.2 8.4-1.9 12-2.4 3.4-0.5 7-0.7 10.6-0.7 9.1 0 16.3 1.2 21.8 3.8 5.5 2.4 9.6 6.5 12.2 12.2 2.6 5.5 4.1 13.4 4.1 23.5v45.8c0 5.3 0 9.4 0.2 12 0.2 2.9 0.7 5 1.2 6.5 0.5 1.2 1 2.4 1.7 3.1 1 1 1.7 1.7 2.9 2.2 1.2 0.5 3.1 1.2 6.2 1.9v7.7h-42zm-3.9-40.3q0 0 0.1 0zm-25.8 7c-5.5 4.3-8.4 10.3-8.4 18.7 0 4.8 1.4 8.4 3.8 11 2.6 2.6 6.2 3.8 10.8 3.8 3.4 0 6.7-1 9.6-2.9 3.1-1.9 5.8-4.6 7.4-7.7 1.9-3.4 2.6-6.7 2.6-10.3v-19.6c-11.5 0.5-20.1 2.6-25.8 7zm150.6 14.6c0 7.4 0.2 12.7 0.7 15.6 0.5 2.6 1.4 5 2.9 6.7 1.4 1.7 3.8 3.1 7.9 4.1v7.7h-55.4v-7.7c2.2-0.5 4.1-1.2 5.3-1.9 1.2-0.7 2.4-1.7 3.1-2.6 0.7-1 1.2-2.2 1.7-3.8 0.5-1.4 1-3.6 1.2-6.2 0-2.6 0.2-6.7 0.2-11.8v-91.9c0-6.7-0.2-11.8-0.2-14.9-0.2-3.1-0.5-6-0.7-8.2-0.2-2.2-1-3.8-1.7-5-0.7-1.4-1.9-2.4-3.4-3.1-1.4-1-3.6-1.4-7-2.2v-7.7l31.4-1.7h13.9v134.6z"/>
			<path id="Layer" class="s1" d="m441.8 508.5h-272.5v37.7h272.5z"/>
			<path id="Layer" class="s1" d="m1834.6 508.5h-272.5v37.7h272.5z"/>
			<path id="Layer" fill-rule="evenodd" class="s1" d="m102.4 838.7l-3.1 29.1h-73.5v-2.3h2.8q3.6 0 5.8-1.3 1.6-0.8 2.4-2.9 0.7-1.5 0.7-7.7v-54.4q0-6.4-0.7-8-0.7-1.6-2.7-2.7-2.1-1.2-5.5-1.2h-2.8v-2.3h44.1v2.3h-3.6q-3.6 0-5.8 1.2-1.5 0.9-2.5 3-0.6 1.4-0.6 7.7v52.7q0 6.3 0.7 8.1 0.7 1.7 2.9 2.6 1.5 0.5 7.4 0.5h6.9q6.5 0 10.9-2.3 4.4-2.3 7.6-7.3 3.2-5 6.1-14.8zm38.2-8.4v22.9q0 6.7 0.8 8.5 0.9 1.7 2.9 2.8 2.2 1 7.8 1v2.3h-42.1v-2.3q5.8 0 7.8-1 2.1-1.1 2.9-2.8 0.8-1.8 0.8-8.5v-53.7q0-6.7-0.8-8.4-0.8-1.8-2.9-2.8-2.1-1-7.8-1v-2.3h36.1q17.8 0 25.6 6.3 7.7 6.4 7.7 15.9 0 8.1-5 13.8-5 5.7-13.8 7.8-5.9 1.5-20 1.5zm0-40.5v35.7q2 0.1 3.1 0.1 7.4 0 11.5-4.3 4-4.5 4-13.8 0-9.2-4-13.5-4.1-4.2-12.1-4.2zm121.5-4.8v22.4h-2.1q-2-7.8-4.4-11.1-2.4-3.4-6.5-5.4-2.3-1.1-8.1-1.1h-6.2v63.8q0 6.3 0.7 7.9 0.7 1.6 2.7 2.8 2.1 1.2 5.6 1.2h2.8v2.3h-43.4v-2.3h2.8q3.6 0 5.8-1.3 1.6-0.8 2.5-2.9 0.7-1.5 0.7-7.7v-63.8h-6q-8.4 0-12.2 3.5-5.3 4.9-6.7 14.1h-2.3v-22.4zm67.5 4.8v33.6h1.7q7.8 0 11.4-4.9 3.5-4.9 4.5-14.6h2.3v43.4h-2.3q-0.7-7.1-3.1-11.6-2.3-4.6-5.5-6.1-3.1-1.6-9-1.6v23.3q0 6.9 0.6 8.4 0.6 1.5 2.2 2.5 1.5 1 5.1 1h4.9q11.6 0 18.6-5.4 7-5.4 10.1-16.3h2.2l-3.7 26.3h-71.5v-2.3h2.7q3.6 0 5.8-1.3 1.6-0.8 2.4-2.9 0.7-1.5 0.7-7.7v-54.4q0-5.7-0.3-6.9-0.6-2.2-2.2-3.3-2.4-1.7-6.4-1.7h-2.7v-2.3h69.2v24.5h-2.3q-1.8-9-5-12.9-3.2-3.9-9-5.7-3.4-1.1-12.8-1.1zm50.9 78v-2.3h2.8q3.6 0 5.5-1.1 1.9-1.2 2.8-3.1 0.6-1.3 0.6-7.7v-54.4q0-6.4-0.7-8-0.7-1.6-2.7-2.7-2.1-1.2-5.5-1.2h-2.8v-2.3h37.1q14.8 0 23.8 4 11.1 5 16.8 15 5.7 10 5.7 22.6 0 8.8-2.8 16.1-2.8 7.4-7.3 12.2-4.4 4.7-10.3 7.7-5.8 2.8-14.2 4.4-3.7 0.8-11.7 0.8zm31.5-78.1v64.6q0 5.1 0.5 6.3 0.5 1.1 1.7 1.7 1.6 0.9 4.7 0.9 10.2 0 15.6-6.9 7.3-9.4 7.3-29.2 0-15.9-5-25.4-4-7.5-10.2-10.2-4.4-1.9-14.6-1.8zm136-4.7v22.4h-2.2q-1.9-7.8-4.3-11.1-2.4-3.4-6.5-5.4-2.4-1.1-8.2-1.1h-6.1v63.8q0 6.3 0.6 7.9 0.8 1.6 2.8 2.8 2.1 1.2 5.6 1.2h2.7v2.3h-43.3v-2.3h2.8q3.6 0 5.8-1.3 1.5-0.8 2.5-2.9 0.6-1.5 0.6-7.7v-63.8h-5.9q-8.4 0-12.2 3.5-5.3 4.9-6.7 14.1h-2.3v-22.4zm38.5 4.8v33.6h1.7q7.9 0 11.4-4.9 3.5-4.9 4.5-14.6h2.3v43.4h-2.3q-0.7-7.1-3.1-11.6-2.3-4.6-5.4-6.1-3.1-1.6-9.1-1.6v23.3q0 6.9 0.6 8.4 0.6 1.5 2.2 2.5 1.6 1 5.1 1h5q11.6 0 18.5-5.4 7-5.4 10.1-16.3h2.2l-3.7 26.3h-71.5v-2.3h2.7q3.6 0 5.8-1.3 1.6-0.8 2.5-2.9 0.6-1.5 0.6-7.7v-54.4q0-5.7-0.3-6.9-0.6-2.2-2.2-3.3-2.3-1.7-6.4-1.7h-2.7v-2.3h69.3v24.5h-2.4q-1.7-9-5-12.9-3.1-3.9-9-5.7-3.4-1.1-12.8-1.1zm132.7-6.7v28.7h-2.3q-2.7-11.2-10-17.2-7.4-6-16.6-6-7.8 0-14.3 4.5-6.4 4.4-9.4 11.6-3.9 9.2-3.9 20.5 0 11.1 2.8 20.3 2.8 9.1 8.8 13.8 6 4.6 15.5 4.6 7.8 0 14.3-3.4 6.5-3.4 13.7-11.8v7.2q-6.9 7.2-14.5 10.5-7.5 3.3-17.6 3.3-13.2 0-23.5-5.4-10.3-5.3-15.9-15.2-5.5-10-5.5-21.2 0-11.8 6.1-22.5 6.2-10.6 16.7-16.4 10.6-5.9 22.4-5.9 8.8 0 18.5 3.8 5.6 2.2 7.1 2.2 2 0 3.4-1.4 1.4-1.5 1.9-4.6zm41 44.9v25.6q0 6.3 0.7 7.9 0.7 1.6 2.8 2.8 2 1.2 5.5 1.2h2.8v2.3h-43.3v-2.3h2.7q3.6 0 5.8-1.3 1.6-0.8 2.5-2.9 0.6-1.5 0.6-7.7v-54.4q0-6.4-0.6-8-0.7-1.6-2.8-2.7-2-1.2-5.5-1.2h-2.7v-2.3h43.3v2.3h-2.8q-3.6 0-5.8 1.2-1.6 0.9-2.5 3-0.7 1.4-0.7 7.7v23.4h29.3v-23.4q0-6.4-0.7-8-0.7-1.6-2.7-2.7-2.1-1.2-5.6-1.2h-2.7v-2.3h43.2v2.3h-2.7q-3.6 0-5.8 1.2-1.5 0.9-2.5 3-0.6 1.4-0.6 7.7v54.4q0 6.3 0.6 7.9 0.7 1.6 2.8 2.8 2.1 1.2 5.5 1.2h2.7v2.3h-43.2v-2.3h2.7q3.7 0 5.8-1.3 1.6-0.8 2.5-2.9 0.7-1.5 0.7-7.7v-25.6zm128.1 2.3v22.9q0 6.7 0.8 8.5 0.8 1.7 2.9 2.8 2.1 1 7.8 1v2.3h-42.1v-2.3q5.7 0 7.8-1 2-1.1 2.8-2.8 0.9-1.8 0.9-8.5v-53.7q0-6.7-0.9-8.4-0.8-1.8-2.8-2.8-2.1-1-7.8-1v-2.3h36.1q17.8 0 25.6 6.3 7.7 6.4 7.7 15.9 0 8.1-5 13.8-5 5.7-13.8 7.8-5.9 1.5-20 1.5zm0-40.5v35.7q2 0.1 3 0.1 7.5 0 11.5-4.3 4-4.5 4-13.8 0-9.2-4-13.5-4-4.2-12-4.2zm75.9 40.2v23.2q0 6.7 0.7 8.5 0.9 1.7 3 2.8 2.1 1 7.7 1v2.3h-42.3v-2.3q5.7 0 7.7-1 2.1-1.1 2.9-2.8 0.8-1.8 0.8-8.5v-53.7q0-6.7-0.8-8.4-0.8-1.8-2.9-2.8-2.1-1-7.7-1v-2.3h38.4q15 0 22 2.1 7 2 11.3 7.7 4.4 5.5 4.4 13 0 9.2-6.5 15.2-4.3 3.7-11.8 5.6l19.9 28.1q3.9 5.4 5.5 6.7 2.5 1.9 5.8 2.1v2.3h-26l-26.7-37.8zm0-40.5v36.2h3.5q8.5 0 12.7-1.5 4.2-1.6 6.6-5.6 2.4-4.1 2.4-10.7 0-9.4-4.5-13.9-4.4-4.5-14.2-4.5zm102.9 76v2.3h-43.3v-2.3h2.8q3.6 0 5.8-1.3 1.6-0.8 2.4-2.9 0.7-1.5 0.7-7.7v-54.4q0-6.4-0.7-8-0.6-1.6-2.7-2.7-2-1.2-5.5-1.2h-2.8v-2.3h43.3v2.3h-2.7q-3.6 0-5.8 1.2-1.6 0.9-2.5 3-0.7 1.4-0.7 7.7v54.4q0 6.3 0.7 7.9 0.7 1.6 2.7 2.8 2.1 1.2 5.6 1.2zm91.9-80.5v2.3q-4.5 0.7-8.1 4.8-2.5 3-7.6 14.3l-28.5 63.3h-2l-28.4-65.8q-5.1-11.9-6.9-14-1.7-2.1-6.5-2.6v-2.3h39.6v2.3h-1.3q-5.4 0-7.3 1.3-1.4 0.9-1.4 2.7 0 1.1 0.5 2.6 0.5 1.5 3.3 8l17.6 41.2 16.4-36.7q2.9-6.6 3.6-8.9 0.6-2.2 0.6-3.8 0-1.9-0.9-3.3-1-1.4-2.9-2.1-2.6-1-7-1v-2.3zm37.3 59.2h-29.3l-3.5 8.1q-1.7 4-1.7 6.6 0 3.5 2.8 5.1 1.7 1 8.2 1.5v2.3h-27.6v-2.3q4.5-0.7 7.4-3.7 2.8-3 7-12.5l29.6-66h1.2l29.8 67.9q4.3 9.6 7.1 12.1 2 1.9 5.8 2.2v2.3h-40v-2.3h1.6q4.9 0 6.8-1.3 1.4-1 1.4-2.8 0-1.1-0.4-2.3-0.1-0.6-1.8-4.6zm-2.1-4.5l-12.4-28.5-12.6 28.5zm109.9-54.7v22.4h-2.2q-1.9-7.7-4.3-11.1-2.4-3.4-6.5-5.4-2.3-1.1-8.1-1.1h-6.2v63.8q0 6.4 0.7 7.9 0.7 1.6 2.7 2.9 2.1 1.1 5.6 1.1h2.8v2.3h-43.4v-2.3h2.8q3.6 0 5.8-1.3 1.6-0.8 2.5-2.9 0.7-1.5 0.7-7.7v-63.8h-6q-8.4 0-12.2 3.5-5.3 5-6.7 14.1h-2.3v-22.4zm38.6 4.8v33.7h1.6q7.9 0 11.4-5 3.6-4.9 4.5-14.6h2.4v43.4h-2.4q-0.7-7.1-3.1-11.6-2.3-4.5-5.4-6.1-3.1-1.6-9-1.6v23.4q0 6.8 0.5 8.3 0.6 1.5 2.2 2.5 1.6 1 5.1 1h5q11.6 0 18.5-5.4 7.1-5.3 10.1-16.3h2.3l-3.8 26.3h-71.5v-2.3h2.8q3.6 0 5.8-1.3 1.5-0.8 2.4-2.9 0.7-1.5 0.7-7.7v-54.4q0-5.6-0.3-6.9-0.6-2.2-2.3-3.3-2.3-1.7-6.3-1.7h-2.8v-2.3h69.3v24.5h-2.3q-1.8-9-5-12.9-3.2-3.9-9.1-5.7-3.4-1.1-12.8-1.1zm159.5 48.9l-3.1 29.1h-73.5v-2.3h2.7q3.6 0 5.8-1.3 1.6-0.8 2.5-2.9 0.7-1.5 0.6-7.7v-54.4q0.1-6.4-0.6-8-0.7-1.5-2.8-2.7-2-1.2-5.5-1.2h-2.7v-2.3h44.1v2.3h-3.6q-3.6 0-5.8 1.3-1.6 0.8-2.5 2.9-0.7 1.4-0.7 7.7v52.7q0.1 6.4 0.8 8.1 0.7 1.7 2.8 2.6 1.6 0.5 7.4 0.5h6.9q6.6 0 11-2.3 4.4-2.3 7.6-7.3 3.2-5 6.1-14.8zm50.2 26.8v2.3h-43.3v-2.3h2.8q3.6 0 5.8-1.3 1.6-0.8 2.4-2.9 0.7-1.5 0.7-7.7v-54.4q0-6.4-0.7-8-0.6-1.5-2.7-2.7-2-1.2-5.5-1.2h-2.8v-2.3h43.3v2.3h-2.7q-3.6 0-5.8 1.3-1.6 0.8-2.5 2.9-0.7 1.4-0.7 7.7v54.4q0 6.4 0.7 7.9 0.7 1.6 2.7 2.9 2.1 1.1 5.6 1.1zm62.5-25.9l22.4-54.6h33.7v2.3h-2.7q-3.6 0-5.8 1.3-1.5 0.8-2.5 2.8-0.6 1.5-0.6 7.6v54.6q0 6.4 0.6 7.9 0.7 1.6 2.8 2.9 2.1 1.1 5.5 1.1h2.7v2.3h-43.2v-2.3h2.7q3.7 0 5.9-1.3 1.5-0.8 2.4-2.9 0.7-1.5 0.7-7.7v-61.3l-31.8 75.5h-1.4l-32.3-75v58.3q0 6.1 0.3 7.5 0.8 3.1 3.5 5 2.7 1.9 8.3 1.9v2.3h-28.3v-2.3h0.9q2.7 0.1 5.1-0.8 2.4-1 3.6-2.6 1.2-1.6 1.9-4.5 0.1-0.6 0.1-6.2v-52.4q0-6.2-0.7-7.8-0.6-1.5-2.7-2.7-2.1-1.2-5.6-1.2h-2.6v-2.3h33.8zm104.3 26v2.2h-43.3v-2.2h2.7q3.6 0 5.8-1.3 1.6-0.9 2.5-3 0.6-1.4 0.6-7.6v-54.5q0-6.3-0.6-7.9-0.7-1.6-2.8-2.8-2-1.2-5.5-1.2h-2.7v-2.3h43.3v2.3h-2.8q-3.6 0-5.8 1.3-1.6 0.8-2.5 2.9-0.7 1.5-0.7 7.7v54.5q0 6.3 0.7 7.9 0.8 1.6 2.8 2.8 2 1.2 5.5 1.2zm81.8-80.6v22.4h-2.2q-1.9-7.7-4.3-11.1-2.4-3.4-6.6-5.4-2.3-1.1-8.1-1.1h-6.1v63.9q0 6.3 0.6 7.9 0.8 1.6 2.8 2.8 2.1 1.2 5.6 1.2h2.7v2.2h-43.3v-2.2h2.8q3.6 0 5.8-1.3 1.5-0.9 2.5-3 0.6-1.4 0.6-7.6v-63.9h-6q-8.3 0-12.1 3.5-5.3 5-6.7 14.1h-2.3v-22.4zm38.5 4.8v33.7h1.7q7.9 0 11.4-4.9 3.5-5 4.5-14.6h2.3v43.3h-2.3q-0.7-7.1-3.1-11.6-2.3-4.5-5.4-6-3.1-1.6-9.1-1.6v23.3q0 6.8 0.6 8.4 0.6 1.5 2.2 2.5 1.6 0.9 5.1 0.9h5q11.6 0 18.5-5.3 7-5.4 10.1-16.4h2.2l-3.7 26.3h-71.5v-2.2h2.7q3.6 0 5.8-1.3 1.6-0.9 2.5-3 0.6-1.4 0.6-7.6v-54.5q0.1-5.6-0.3-6.9-0.6-2.1-2.2-3.3-2.3-1.7-6.4-1.7h-2.7v-2.3h69.3v24.5h-2.4q-1.7-8.9-5-12.9-3.1-3.9-9-5.7-3.4-1.1-12.8-1.1zm50.9 78v-2.2h2.8q3.6 0 5.5-1.1 1.9-1.2 2.9-3.2 0.5-1.2 0.5-7.6v-54.5q0-6.3-0.7-7.9-0.6-1.6-2.7-2.8-2-1.2-5.5-1.2h-2.8v-2.3h37.1q14.8 0 23.9 4.1 11 4.9 16.7 14.9 5.7 10 5.7 22.7 0 8.7-2.8 16.1-2.8 7.3-7.3 12.1-4.4 4.8-10.3 7.7-5.8 2.9-14.2 4.5-3.7 0.7-11.7 0.7zm31.6-78.1v64.6q0 5.1 0.4 6.3 0.5 1.2 1.7 1.8 1.6 0.9 4.7 0.9 10.2 0 15.6-7 7.3-9.4 7.3-29.1 0-16-5-25.5-3.9-7.4-10.2-10.1-4.4-1.9-14.5-1.9z"/>
		</g>
	</g>
</svg>